<?xml version="1.0" encoding="UTF-8" standalone="no"?>
<svg
   width="2em"
   height="2em"
   viewBox="0 0 256 256"
   version="1.1"
   id="svg1804"
   sodipodi:docname="ph--eyes-fill-rotated.svg"
   inkscape:version="1.2 (dc2aedaf03, 2022-05-15)"
   xmlns:inkscape="http://www.inkscape.org/namespaces/inkscape"
   xmlns:sodipodi="http://sodipodi.sourceforge.net/DTD/sodipodi-0.dtd"
   xmlns="http://www.w3.org/2000/svg"
   xmlns:svg="http://www.w3.org/2000/svg">
  <defs
     id="defs1808" />
  <sodipodi:namedview
     id="namedview1806"
     pagecolor="#ffffff"
     bordercolor="#000000"
     borderopacity="0.25"
     inkscape:showpageshadow="2"
     inkscape:pageopacity="0.0"
     inkscape:pagecheckerboard="0"
     inkscape:deskcolor="#d1d1d1"
     showgrid="false"
     inkscape:zoom="3.03125"
     inkscape:cx="128"
     inkscape:cy="128"
     inkscape:window-width="1920"
     inkscape:window-height="974"
     inkscape:window-x="-11"
     inkscape:window-y="-11"
     inkscape:window-maximized="1"
     inkscape:current-layer="svg1804" />
  <path
     fill="currentColor"
     d="m 80,32 c 20.61,0 38.28,18.16 48,45.85 C 137.72,50.16 155.39,32 176,32 c 31.4,0 56,42.17 56,96 0,53.83 -24.6,96 -56,96 -20.61,0 -38.28,-18.16 -48,-45.85 C 118.28,205.84 100.61,224 80,224 48.6,224 24,181.83 24,128 24,74.17 48.6,32 80,32 m 69.08,154.39 c 7.49,13.73 17.3,21.61 26.92,21.61 9.62,0 19.43,-7.88 26.92,-21.61 a 104.8,104.8 0 0 0 10.24,-29.23 32,32 0 1 1 0,-58.32 104.8,104.8 0 0 0 -10.24,-29.23 C 195.43,55.88 185.62,48 176,48 166.38,48 156.57,55.88 149.08,69.61 140.65,85.07 136,105.81 136,128 c 0,22.19 4.65,42.93 13.08,58.39 m -96,0 C 60.57,200.12 70.38,208 80,208 c 9.62,0 19.43,-7.88 26.92,-21.61 a 104.8,104.8 0 0 0 10.24,-29.23 32,32 0 1 1 0,-58.32 104.8,104.8 0 0 0 -10.24,-29.23 C 99.43,55.88 89.62,48 80,48 70.38,48 60.57,55.88 53.08,69.61 44.65,85.07 40,105.81 40,128 c 0,22.19 4.65,42.93 13.08,58.39"
     id="path1802" />
</svg>
